<svg xmlns="http://www.w3.org/2000/svg" width="760" height="640" viewBox="0 0 760 640" role="img" style="font-family: Times New Roman, DejaVu Serif, serif;">
<title>Batch-size throughput scaling</title>
<desc>Log-log line chart comparing src/run.py kernel families, SGLang, vLLM, and llama.cpp batched-bench throughput across batch sizes.</desc>
<rect width="760" height="640" fill="#fff" />
<text x="380.0" y="28.0" text-anchor="middle" font-size="20" font-weight="700" fill="#111">Batch Scaling</text>
<text x="380.0" y="50.0" text-anchor="middle" font-size="14" fill="#444">DeepSeek-V2-Lite-Chat, A100 80GB, input 24 tokens, output 100 tokens</text>
<rect x="89.5" y="59" width="620" height="30" rx="4" ry="4" fill="#fff" stroke="#cccccc" stroke-width="1" opacity="0.95" />
<line x1="107.5" y1="76.0" x2="133.5" y2="76.0" stroke="#d62728" stroke-width="3" stroke-linecap="round" />
<polygon points="120.5,70.0 114.5,76.0 120.5,82.0 126.5,76.0" fill="#d62728" />
<text x="139.5" y="81.0" font-size="14" fill="#111">batch</text>
<line x1="231.5" y1="76.0" x2="257.5" y2="76.0" stroke="#ff7f0e" stroke-width="3" stroke-linecap="round" />
<polygon points="244.5,70.0 238.5,76.0 244.5,82.0 250.5,76.0" fill="#ff7f0e" />
<text x="263.5" y="81.0" font-size="14" fill="#111">small</text>
<line x1="355.5" y1="76.0" x2="381.5" y2="76.0" stroke="#1f77b4" stroke-width="3" stroke-linecap="round" />
<rect x="363.5" y="71.0" width="10" height="10" fill="#1f77b4" />
<text x="387.5" y="81.0" font-size="14" fill="#111">SGLang</text>
<line x1="479.5" y1="76.0" x2="505.5" y2="76.0" stroke="#2ca02c" stroke-width="3" stroke-linecap="round" />
<polygon points="492.5,70.0 486.5,81.0 498.5,81.0" fill="#2ca02c" />
<text x="511.5" y="81.0" font-size="14" fill="#111">vLLM</text>
<line x1="603.5" y1="76.0" x2="629.5" y2="76.0" stroke="#9467bd" stroke-width="3" stroke-linecap="round" />
<polygon points="616.5,70.0 610.5,76.0 616.5,82.0 622.5,76.0" fill="#9467bd" />
<text x="635.5" y="81.0" font-size="14" fill="#111">llama.cpp</text>
<line x1="72.0" y1="100" x2="72.0" y2="568" stroke="#e8e8e8" stroke-width="1" />
<text x="72.0" y="593.0" text-anchor="middle" font-size="18" fill="#111">1</text>
<line x1="153.9" y1="100" x2="153.9" y2="568" stroke="#e8e8e8" stroke-width="1" />
<text x="153.9" y="593.0" text-anchor="middle" font-size="18" fill="#111">2</text>
<line x1="235.8" y1="100" x2="235.8" y2="568" stroke="#e8e8e8" stroke-width="1" />
<text x="235.8" y="593.0" text-anchor="middle" font-size="18" fill="#111">4</text>
<line x1="317.6" y1="100" x2="317.6" y2="568" stroke="#e8e8e8" stroke-width="1" />
<text x="317.6" y="593.0" text-anchor="middle" font-size="18" fill="#111">8</text>
<line x1="399.5" y1="100" x2="399.5" y2="568" stroke="#e8e8e8" stroke-width="1" />
<text x="399.5" y="593.0" text-anchor="middle" font-size="18" fill="#111">16</text>
<line x1="481.4" y1="100" x2="481.4" y2="568" stroke="#e8e8e8" stroke-width="1" />
<text x="481.4" y="593.0" text-anchor="middle" font-size="18" fill="#111">32</text>
<line x1="563.2" y1="100" x2="563.2" y2="568" stroke="#e8e8e8" stroke-width="1" />
<text x="563.2" y="593.0" text-anchor="middle" font-size="18" fill="#111">64</text>
<line x1="645.1" y1="100" x2="645.1" y2="568" stroke="#e8e8e8" stroke-width="1" />
<text x="645.1" y="593.0" text-anchor="middle" font-size="18" fill="#111">128</text>
<line x1="727.0" y1="100" x2="727.0" y2="568" stroke="#e8e8e8" stroke-width="1" />
<text x="727.0" y="593.0" text-anchor="middle" font-size="18" fill="#111">256</text>
<line x1="72" y1="568.0" x2="727" y2="568.0" stroke="#e8e8e8" stroke-width="1" />
<text x="60.0" y="574.0" text-anchor="end" font-size="18" fill="#111">64</text>
<line x1="72" y1="509.5" x2="727" y2="509.5" stroke="#e8e8e8" stroke-width="1" />
<text x="60.0" y="515.5" text-anchor="end" font-size="18" fill="#111">128</text>
<line x1="72" y1="451.0" x2="727" y2="451.0" stroke="#e8e8e8" stroke-width="1" />
<text x="60.0" y="457.0" text-anchor="end" font-size="18" fill="#111">256</text>
<line x1="72" y1="392.5" x2="727" y2="392.5" stroke="#e8e8e8" stroke-width="1" />
<text x="60.0" y="398.5" text-anchor="end" font-size="18" fill="#111">512</text>
<line x1="72" y1="334.0" x2="727" y2="334.0" stroke="#e8e8e8" stroke-width="1" />
<text x="60.0" y="340.0" text-anchor="end" font-size="18" fill="#111">1k</text>
<line x1="72" y1="275.5" x2="727" y2="275.5" stroke="#e8e8e8" stroke-width="1" />
<text x="60.0" y="281.5" text-anchor="end" font-size="18" fill="#111">2k</text>
<line x1="72" y1="217.0" x2="727" y2="217.0" stroke="#e8e8e8" stroke-width="1" />
<text x="60.0" y="223.0" text-anchor="end" font-size="18" fill="#111">4k</text>
<line x1="72" y1="158.5" x2="727" y2="158.5" stroke="#e8e8e8" stroke-width="1" />
<text x="60.0" y="164.5" text-anchor="end" font-size="18" fill="#111">8k</text>
<line x1="72" y1="100.0" x2="727" y2="100.0" stroke="#e8e8e8" stroke-width="1" />
<text x="60.0" y="106.0" text-anchor="end" font-size="18" fill="#111">16k</text>
<rect x="72" y="100" width="655" height="468" fill="none" stroke="#222" stroke-width="1.2" />
<text x="399.5" y="622.0" text-anchor="middle" font-size="20" fill="#111">Batch size / parallel sequences</text>
<text x="24" y="334.0" text-anchor="middle" font-size="20" fill="#111" transform="rotate(-90 24 334.0)">Throughput (tok/s, log scale)</text>
<polyline points="72.0,493.9 153.9,446.3 235.8,391.4 317.6,339.6 399.5,281.2 481.4,227.7 563.2,181.5 645.1,149.5 727.0,130.4" fill="none" stroke="#d62728" stroke-width="3" stroke-linejoin="round" stroke-linecap="round" />
<polygon points="72.0,487.9 66.0,493.9 72.0,499.9 78.0,493.9" fill="#d62728" />
<polygon points="153.9,440.3 147.9,446.3 153.9,452.3 159.9,446.3" fill="#d62728" />
<polygon points="235.8,385.4 229.8,391.4 235.8,397.4 241.8,391.4" fill="#d62728" />
<polygon points="317.6,333.6 311.6,339.6 317.6,345.6 323.6,339.6" fill="#d62728" />
<polygon points="399.5,275.2 393.5,281.2 399.5,287.2 405.5,281.2" fill="#d62728" />
<polygon points="481.4,221.7 475.4,227.7 481.4,233.7 487.4,227.7" fill="#d62728" />
<polygon points="563.2,175.5 557.2,181.5 563.2,187.5 569.2,181.5" fill="#d62728" />
<polygon points="645.1,143.5 639.1,149.5 645.1,155.5 651.1,149.5" fill="#d62728" />
<polygon points="727.0,124.4 721.0,130.4 727.0,136.4 733.0,130.4" fill="#d62728" />
<polyline points="72.0,472.7 153.9,445.7 235.8,401.5 317.6,377.1 399.5,354.5 481.4,343.1 563.2,335.5 645.1,331.3 727.0,328.8" fill="none" stroke="#ff7f0e" stroke-width="3" stroke-linejoin="round" stroke-linecap="round" />
<polygon points="72.0,466.7 66.0,472.7 72.0,478.7 78.0,472.7" fill="#ff7f0e" />
<polygon points="153.9,439.7 147.9,445.7 153.9,451.7 159.9,445.7" fill="#ff7f0e" />
<polygon points="235.8,395.5 229.8,401.5 235.8,407.5 241.8,401.5" fill="#ff7f0e" />
<polygon points="317.6,371.1 311.6,377.1 317.6,383.1 323.6,377.1" fill="#ff7f0e" />
<polygon points="399.5,348.5 393.5,354.5 399.5,360.5 405.5,354.5" fill="#ff7f0e" />
<polygon points="481.4,337.1 475.4,343.1 481.4,349.1 487.4,343.1" fill="#ff7f0e" />
<polygon points="563.2,329.5 557.2,335.5 563.2,341.5 569.2,335.5" fill="#ff7f0e" />
<polygon points="645.1,325.3 639.1,331.3 645.1,337.3 651.1,331.3" fill="#ff7f0e" />
<polygon points="727.0,322.8 721.0,328.8 727.0,334.8 733.0,328.8" fill="#ff7f0e" />
<polyline points="72.0,488.0 153.9,450.8 235.8,417.9 317.6,379.1 399.5,340.0 481.4,297.1 563.2,248.1 645.1,220.1 727.0,170.6" fill="none" stroke="#1f77b4" stroke-width="3" stroke-linejoin="round" stroke-linecap="round" />
<rect x="67.0" y="483.0" width="10" height="10" fill="#1f77b4" />
<rect x="148.9" y="445.8" width="10" height="10" fill="#1f77b4" />
<rect x="230.8" y="412.9" width="10" height="10" fill="#1f77b4" />
<rect x="312.6" y="374.1" width="10" height="10" fill="#1f77b4" />
<rect x="394.5" y="335.0" width="10" height="10" fill="#1f77b4" />
<rect x="476.4" y="292.1" width="10" height="10" fill="#1f77b4" />
<rect x="558.2" y="243.1" width="10" height="10" fill="#1f77b4" />
<rect x="640.1" y="215.1" width="10" height="10" fill="#1f77b4" />
<rect x="722.0" y="165.6" width="10" height="10" fill="#1f77b4" />
<polyline points="72.0,550.8 153.9,478.2 235.8,415.5 317.6,381.2 399.5,342.1 481.4,299.0 563.2,254.1 645.1,226.6 727.0,183.2" fill="none" stroke="#2ca02c" stroke-width="3" stroke-linejoin="round" stroke-linecap="round" />
<polygon points="72.0,544.8 66.0,555.8 78.0,555.8" fill="#2ca02c" />
<polygon points="153.9,472.2 147.9,483.2 159.9,483.2" fill="#2ca02c" />
<polygon points="235.8,409.5 229.8,420.5 241.8,420.5" fill="#2ca02c" />
<polygon points="317.6,375.2 311.6,386.2 323.6,386.2" fill="#2ca02c" />
<polygon points="399.5,336.1 393.5,347.1 405.5,347.1" fill="#2ca02c" />
<polygon points="481.4,293.0 475.4,304.0 487.4,304.0" fill="#2ca02c" />
<polygon points="563.2,248.1 557.2,259.1 569.2,259.1" fill="#2ca02c" />
<polygon points="645.1,220.6 639.1,231.6 651.1,231.6" fill="#2ca02c" />
<polygon points="727.0,177.2 721.0,188.2 733.0,188.2" fill="#2ca02c" />
<polyline points="72.0,503.8 153.9,461.3 235.8,420.5 317.6,380.0 399.5,349.8 481.4,314.8 563.2,284.6 645.1,262.5 727.0,275.3" fill="none" stroke="#9467bd" stroke-width="3" stroke-linejoin="round" stroke-linecap="round" />
<polygon points="72.0,497.8 66.0,503.8 72.0,509.8 78.0,503.8" fill="#9467bd" />
<polygon points="153.9,455.3 147.9,461.3 153.9,467.3 159.9,461.3" fill="#9467bd" />
<polygon points="235.8,414.5 229.8,420.5 235.8,426.5 241.8,420.5" fill="#9467bd" />
<polygon points="317.6,374.0 311.6,380.0 317.6,386.0 323.6,380.0" fill="#9467bd" />
<polygon points="399.5,343.8 393.5,349.8 399.5,355.8 405.5,349.8" fill="#9467bd" />
<polygon points="481.4,308.8 475.4,314.8 481.4,320.8 487.4,314.8" fill="#9467bd" />
<polygon points="563.2,278.6 557.2,284.6 563.2,290.6 569.2,284.6" fill="#9467bd" />
<polygon points="645.1,256.5 639.1,262.5 645.1,268.5 651.1,262.5" fill="#9467bd" />
<polygon points="727.0,269.3 721.0,275.3 727.0,281.3 733.0,275.3" fill="#9467bd" />
</svg>
