<svg xmlns="http://www.w3.org/2000/svg" width="1080" height="640" viewBox="0 0 1080 640" role="img">
<title>Third-party batch-size throughput scaling</title>
<desc>Log-log line chart comparing SGLang, vLLM, and llama.cpp batched-bench throughput across batch sizes.</desc>
<rect width="1080" height="640" fill="white" />
<text x="540.0" y="32.0" text-anchor="middle" font-size="24" font-weight="700">Third-Party Batch Scaling</text>
<text x="540.0" y="56.0" text-anchor="middle" font-size="14" fill="#555">DeepSeek-V2-Lite-Chat, RTX A6000 GPU2, input 24 tokens, output/decode 100 tokens</text>
<line x1="92.0" y1="72" x2="92.0" y2="558" stroke="#e8e8e8" stroke-width="1" />
<text x="92.0" y="586.0" text-anchor="middle" font-size="13" fill="#333">1</text>
<line x1="180.5" y1="72" x2="180.5" y2="558" stroke="#e8e8e8" stroke-width="1" />
<text x="180.5" y="586.0" text-anchor="middle" font-size="13" fill="#333">2</text>
<line x1="269.0" y1="72" x2="269.0" y2="558" stroke="#e8e8e8" stroke-width="1" />
<text x="269.0" y="586.0" text-anchor="middle" font-size="13" fill="#333">4</text>
<line x1="357.5" y1="72" x2="357.5" y2="558" stroke="#e8e8e8" stroke-width="1" />
<text x="357.5" y="586.0" text-anchor="middle" font-size="13" fill="#333">8</text>
<line x1="446.0" y1="72" x2="446.0" y2="558" stroke="#e8e8e8" stroke-width="1" />
<text x="446.0" y="586.0" text-anchor="middle" font-size="13" fill="#333">16</text>
<line x1="534.5" y1="72" x2="534.5" y2="558" stroke="#e8e8e8" stroke-width="1" />
<text x="534.5" y="586.0" text-anchor="middle" font-size="13" fill="#333">32</text>
<line x1="623.0" y1="72" x2="623.0" y2="558" stroke="#e8e8e8" stroke-width="1" />
<text x="623.0" y="586.0" text-anchor="middle" font-size="13" fill="#333">64</text>
<line x1="711.5" y1="72" x2="711.5" y2="558" stroke="#e8e8e8" stroke-width="1" />
<text x="711.5" y="586.0" text-anchor="middle" font-size="13" fill="#333">128</text>
<line x1="800.0" y1="72" x2="800.0" y2="558" stroke="#e8e8e8" stroke-width="1" />
<text x="800.0" y="586.0" text-anchor="middle" font-size="13" fill="#333">256</text>
<line x1="92" y1="558.0" x2="800" y2="558.0" stroke="#e8e8e8" stroke-width="1" />
<text x="80.0" y="562.0" text-anchor="end" font-size="13" fill="#333">50</text>
<line x1="92" y1="489.8" x2="800" y2="489.8" stroke="#e8e8e8" stroke-width="1" />
<text x="80.0" y="493.8" text-anchor="end" font-size="13" fill="#333">100</text>
<line x1="92" y1="421.7" x2="800" y2="421.7" stroke="#e8e8e8" stroke-width="1" />
<text x="80.0" y="425.7" text-anchor="end" font-size="13" fill="#333">200</text>
<line x1="92" y1="331.5" x2="800" y2="331.5" stroke="#e8e8e8" stroke-width="1" />
<text x="80.0" y="335.5" text-anchor="end" font-size="13" fill="#333">500</text>
<line x1="92" y1="263.4" x2="800" y2="263.4" stroke="#e8e8e8" stroke-width="1" />
<text x="80.0" y="267.4" text-anchor="end" font-size="13" fill="#333">1k</text>
<line x1="92" y1="195.2" x2="800" y2="195.2" stroke="#e8e8e8" stroke-width="1" />
<text x="80.0" y="199.2" text-anchor="end" font-size="13" fill="#333">2k</text>
<line x1="92" y1="105.1" x2="800" y2="105.1" stroke="#e8e8e8" stroke-width="1" />
<text x="80.0" y="109.1" text-anchor="end" font-size="13" fill="#333">5k</text>
<rect x="92" y="72" width="708" height="486" fill="none" stroke="#222" stroke-width="1.2" />
<text x="446.0" y="616.0" text-anchor="middle" font-size="16" fill="#111">Batch size / parallel sequences</text>
<text x="24" y="315.0" text-anchor="middle" font-size="16" fill="#111" transform="rotate(-90 24 315.0)">Throughput (tok/s, log scale)</text>
<polyline points="92.0,480.2 180.5,446.8 269.0,415.5 357.5,378.1 446.0,335.1 534.5,282.9 623.0,233.2 711.5,201.1 800.0,143.4" fill="none" stroke="#1f77b4" stroke-width="3" stroke-linejoin="round" stroke-linecap="round" />
<rect x="87.0" y="475.2" width="10" height="10" fill="#1f77b4" />
<rect x="175.5" y="441.8" width="10" height="10" fill="#1f77b4" />
<rect x="264.0" y="410.5" width="10" height="10" fill="#1f77b4" />
<rect x="352.5" y="373.1" width="10" height="10" fill="#1f77b4" />
<rect x="441.0" y="330.1" width="10" height="10" fill="#1f77b4" />
<rect x="529.5" y="277.9" width="10" height="10" fill="#1f77b4" />
<rect x="618.0" y="228.2" width="10" height="10" fill="#1f77b4" />
<rect x="706.5" y="196.1" width="10" height="10" fill="#1f77b4" />
<rect x="795.0" y="138.4" width="10" height="10" fill="#1f77b4" />
<polyline points="92.0,529.0 180.5,468.7 269.0,417.3 357.5,381.4 446.0,339.4 534.5,290.3 623.0,238.2 711.5,208.9 800.0,157.2" fill="none" stroke="#2ca02c" stroke-width="3" stroke-linejoin="round" stroke-linecap="round" />
<polygon points="92.0,523.0 86.0,534.0 98.0,534.0" fill="#2ca02c" />
<polygon points="180.5,462.7 174.5,473.7 186.5,473.7" fill="#2ca02c" />
<polygon points="269.0,411.3 263.0,422.3 275.0,422.3" fill="#2ca02c" />
<polygon points="357.5,375.4 351.5,386.4 363.5,386.4" fill="#2ca02c" />
<polygon points="446.0,333.4 440.0,344.4 452.0,344.4" fill="#2ca02c" />
<polygon points="534.5,284.3 528.5,295.3 540.5,295.3" fill="#2ca02c" />
<polygon points="623.0,232.2 617.0,243.2 629.0,243.2" fill="#2ca02c" />
<polygon points="711.5,202.9 705.5,213.9 717.5,213.9" fill="#2ca02c" />
<polygon points="800.0,151.2 794.0,162.2 806.0,162.2" fill="#2ca02c" />
<polyline points="92.0,489.9 180.5,446.4 269.0,406.4 357.5,364.1 446.0,328.0 534.5,288.7 623.0,255.7 711.5,232.9 800.0,219.4" fill="none" stroke="#9467bd" stroke-width="3" stroke-linejoin="round" stroke-linecap="round" />
<polygon points="92.0,483.9 86.0,489.9 92.0,495.9 98.0,489.9" fill="#9467bd" />
<polygon points="180.5,440.4 174.5,446.4 180.5,452.4 186.5,446.4" fill="#9467bd" />
<polygon points="269.0,400.4 263.0,406.4 269.0,412.4 275.0,406.4" fill="#9467bd" />
<polygon points="357.5,358.1 351.5,364.1 357.5,370.1 363.5,364.1" fill="#9467bd" />
<polygon points="446.0,322.0 440.0,328.0 446.0,334.0 452.0,328.0" fill="#9467bd" />
<polygon points="534.5,282.7 528.5,288.7 534.5,294.7 540.5,288.7" fill="#9467bd" />
<polygon points="623.0,249.7 617.0,255.7 623.0,261.7 629.0,255.7" fill="#9467bd" />
<polygon points="711.5,226.9 705.5,232.9 711.5,238.9 717.5,232.9" fill="#9467bd" />
<polygon points="800.0,213.4 794.0,219.4 800.0,225.4 806.0,219.4" fill="#9467bd" />
<text x="844.0" y="82.0" font-size="16" font-weight="700" fill="#111">Backend</text>
<line x1="844" y1="100.0" x2="878" y2="100.0" stroke="#1f77b4" stroke-width="3" stroke-linecap="round" />
<rect x="856.0" y="95.0" width="10" height="10" fill="#1f77b4" />
<text x="890.0" y="105.0" font-size="14" fill="#111">SGLang (3388 tok/s @ bsz 256)</text>
<line x1="844" y1="154.0" x2="878" y2="154.0" stroke="#2ca02c" stroke-width="3" stroke-linecap="round" />
<polygon points="861.0,148.0 855.0,159.0 867.0,159.0" fill="#2ca02c" />
<text x="890.0" y="159.0" font-size="14" fill="#111">vLLM (2945 tok/s @ bsz 256)</text>
<line x1="844" y1="208.0" x2="878" y2="208.0" stroke="#9467bd" stroke-width="3" stroke-linecap="round" />
<polygon points="861.0,202.0 855.0,208.0 861.0,214.0 867.0,208.0" fill="#9467bd" />
<text x="890.0" y="213.0" font-size="14" fill="#111">llama.cpp (1564 tok/s @ bsz 256)</text>
<text x="844.0" y="606.0" font-size="12" fill="#666">all plotted third-party backends capped at bsz 256</text>
</svg>
