<svg xmlns="http://www.w3.org/2000/svg" width="1080" height="640" viewBox="0 0 1080 640" role="img">
<title>Batch-size throughput scaling</title>
<desc>Log-log line chart comparing src/run.py kernel families, SGLang, vLLM, and llama.cpp batched-bench throughput across batch sizes.</desc>
<rect width="1080" height="640" fill="white" />
<text x="540.0" y="32.0" text-anchor="middle" font-size="24" font-weight="700">Batch Scaling</text>
<text x="540.0" y="56.0" text-anchor="middle" font-size="14" fill="#555">DeepSeek-V2-Lite-Chat, NVIDIA A100 80GB PCIe GPU3, input 24 tokens, output/decode 100 tokens</text>
<line x1="92.0" y1="72" x2="92.0" y2="558" stroke="#e8e8e8" stroke-width="1" />
<text x="92.0" y="586.0" text-anchor="middle" font-size="13" fill="#333">1</text>
<line x1="180.5" y1="72" x2="180.5" y2="558" stroke="#e8e8e8" stroke-width="1" />
<text x="180.5" y="586.0" text-anchor="middle" font-size="13" fill="#333">2</text>
<line x1="269.0" y1="72" x2="269.0" y2="558" stroke="#e8e8e8" stroke-width="1" />
<text x="269.0" y="586.0" text-anchor="middle" font-size="13" fill="#333">4</text>
<line x1="357.5" y1="72" x2="357.5" y2="558" stroke="#e8e8e8" stroke-width="1" />
<text x="357.5" y="586.0" text-anchor="middle" font-size="13" fill="#333">8</text>
<line x1="446.0" y1="72" x2="446.0" y2="558" stroke="#e8e8e8" stroke-width="1" />
<text x="446.0" y="586.0" text-anchor="middle" font-size="13" fill="#333">16</text>
<line x1="534.5" y1="72" x2="534.5" y2="558" stroke="#e8e8e8" stroke-width="1" />
<text x="534.5" y="586.0" text-anchor="middle" font-size="13" fill="#333">32</text>
<line x1="623.0" y1="72" x2="623.0" y2="558" stroke="#e8e8e8" stroke-width="1" />
<text x="623.0" y="586.0" text-anchor="middle" font-size="13" fill="#333">64</text>
<line x1="711.5" y1="72" x2="711.5" y2="558" stroke="#e8e8e8" stroke-width="1" />
<text x="711.5" y="586.0" text-anchor="middle" font-size="13" fill="#333">128</text>
<line x1="800.0" y1="72" x2="800.0" y2="558" stroke="#e8e8e8" stroke-width="1" />
<text x="800.0" y="586.0" text-anchor="middle" font-size="13" fill="#333">256</text>
<line x1="92" y1="558.0" x2="800" y2="558.0" stroke="#e8e8e8" stroke-width="1" />
<text x="80.0" y="562.0" text-anchor="end" font-size="13" fill="#333">64</text>
<line x1="92" y1="497.2" x2="800" y2="497.2" stroke="#e8e8e8" stroke-width="1" />
<text x="80.0" y="501.2" text-anchor="end" font-size="13" fill="#333">128</text>
<line x1="92" y1="436.5" x2="800" y2="436.5" stroke="#e8e8e8" stroke-width="1" />
<text x="80.0" y="440.5" text-anchor="end" font-size="13" fill="#333">256</text>
<line x1="92" y1="375.8" x2="800" y2="375.8" stroke="#e8e8e8" stroke-width="1" />
<text x="80.0" y="379.8" text-anchor="end" font-size="13" fill="#333">512</text>
<line x1="92" y1="315.0" x2="800" y2="315.0" stroke="#e8e8e8" stroke-width="1" />
<text x="80.0" y="319.0" text-anchor="end" font-size="13" fill="#333">1k</text>
<line x1="92" y1="254.2" x2="800" y2="254.2" stroke="#e8e8e8" stroke-width="1" />
<text x="80.0" y="258.2" text-anchor="end" font-size="13" fill="#333">2k</text>
<line x1="92" y1="193.5" x2="800" y2="193.5" stroke="#e8e8e8" stroke-width="1" />
<text x="80.0" y="197.5" text-anchor="end" font-size="13" fill="#333">4k</text>
<line x1="92" y1="132.8" x2="800" y2="132.8" stroke="#e8e8e8" stroke-width="1" />
<text x="80.0" y="136.8" text-anchor="end" font-size="13" fill="#333">8k</text>
<line x1="92" y1="72.0" x2="800" y2="72.0" stroke="#e8e8e8" stroke-width="1" />
<text x="80.0" y="76.0" text-anchor="end" font-size="13" fill="#333">16k</text>
<rect x="92" y="72" width="708" height="486" fill="none" stroke="#222" stroke-width="1.2" />
<text x="446.0" y="616.0" text-anchor="middle" font-size="16" fill="#111">Batch size / parallel sequences</text>
<text x="24" y="315.0" text-anchor="middle" font-size="16" fill="#111" transform="rotate(-90 24 315.0)">Throughput (tok/s, log scale)</text>
<polyline points="92.0,478.8 180.5,429.5 269.0,371.6 357.5,320.7 446.0,258.2 534.5,204.1 623.0,163.8 711.5,135.9 800.0,120.7" fill="none" stroke="#d62728" stroke-width="3" stroke-linejoin="round" stroke-linecap="round" />
<polygon points="92.0,472.8 86.0,478.8 92.0,484.8 98.0,478.8" fill="#d62728" />
<polygon points="180.5,423.5 174.5,429.5 180.5,435.5 186.5,429.5" fill="#d62728" />
<polygon points="269.0,365.6 263.0,371.6 269.0,377.6 275.0,371.6" fill="#d62728" />
<polygon points="357.5,314.7 351.5,320.7 357.5,326.7 363.5,320.7" fill="#d62728" />
<polygon points="446.0,252.2 440.0,258.2 446.0,264.2 452.0,258.2" fill="#d62728" />
<polygon points="534.5,198.1 528.5,204.1 534.5,210.1 540.5,204.1" fill="#d62728" />
<polygon points="623.0,157.8 617.0,163.8 623.0,169.8 629.0,163.8" fill="#d62728" />
<polygon points="711.5,129.9 705.5,135.9 711.5,141.9 717.5,135.9" fill="#d62728" />
<polygon points="800.0,114.7 794.0,120.7 800.0,126.7 806.0,120.7" fill="#d62728" />
<polyline points="92.0,465.1 180.5,442.1 269.0,394.1 357.5,367.1 446.0,346.2 534.5,334.5 623.0,325.7 711.5,320.9 800.0,318.2" fill="none" stroke="#ff7f0e" stroke-width="3" stroke-linejoin="round" stroke-linecap="round" />
<polygon points="92.0,459.1 86.0,465.1 92.0,471.1 98.0,465.1" fill="#ff7f0e" />
<polygon points="180.5,436.1 174.5,442.1 180.5,448.1 186.5,442.1" fill="#ff7f0e" />
<polygon points="269.0,388.1 263.0,394.1 269.0,400.1 275.0,394.1" fill="#ff7f0e" />
<polygon points="357.5,361.1 351.5,367.1 357.5,373.1 363.5,367.1" fill="#ff7f0e" />
<polygon points="446.0,340.2 440.0,346.2 446.0,352.2 452.0,346.2" fill="#ff7f0e" />
<polygon points="534.5,328.5 528.5,334.5 534.5,340.5 540.5,334.5" fill="#ff7f0e" />
<polygon points="623.0,319.7 617.0,325.7 623.0,331.7 629.0,325.7" fill="#ff7f0e" />
<polygon points="711.5,314.9 705.5,320.9 711.5,326.9 717.5,320.9" fill="#ff7f0e" />
<polygon points="800.0,312.2 794.0,318.2 800.0,324.2 806.0,318.2" fill="#ff7f0e" />
<polyline points="92.0,474.9 180.5,436.3 269.0,402.1 357.5,361.9 446.0,321.3 534.5,276.7 623.0,225.8 711.5,196.8 800.0,145.4" fill="none" stroke="#1f77b4" stroke-width="3" stroke-linejoin="round" stroke-linecap="round" />
<rect x="87.0" y="469.9" width="10" height="10" fill="#1f77b4" />
<rect x="175.5" y="431.3" width="10" height="10" fill="#1f77b4" />
<rect x="264.0" y="397.1" width="10" height="10" fill="#1f77b4" />
<rect x="352.5" y="356.9" width="10" height="10" fill="#1f77b4" />
<rect x="441.0" y="316.3" width="10" height="10" fill="#1f77b4" />
<rect x="529.5" y="271.7" width="10" height="10" fill="#1f77b4" />
<rect x="618.0" y="220.8" width="10" height="10" fill="#1f77b4" />
<rect x="706.5" y="191.8" width="10" height="10" fill="#1f77b4" />
<rect x="795.0" y="140.4" width="10" height="10" fill="#1f77b4" />
<polyline points="92.0,540.2 180.5,464.7 269.0,399.6 357.5,364.0 446.0,323.4 534.5,278.7 623.0,232.0 711.5,203.5 800.0,158.4" fill="none" stroke="#2ca02c" stroke-width="3" stroke-linejoin="round" stroke-linecap="round" />
<polygon points="92.0,534.2 86.0,545.2 98.0,545.2" fill="#2ca02c" />
<polygon points="180.5,458.7 174.5,469.7 186.5,469.7" fill="#2ca02c" />
<polygon points="269.0,393.6 263.0,404.6 275.0,404.6" fill="#2ca02c" />
<polygon points="357.5,358.0 351.5,369.0 363.5,369.0" fill="#2ca02c" />
<polygon points="446.0,317.4 440.0,328.4 452.0,328.4" fill="#2ca02c" />
<polygon points="534.5,272.7 528.5,283.7 540.5,283.7" fill="#2ca02c" />
<polygon points="623.0,226.0 617.0,237.0 629.0,237.0" fill="#2ca02c" />
<polygon points="711.5,197.5 705.5,208.5 717.5,208.5" fill="#2ca02c" />
<polygon points="800.0,152.4 794.0,163.4 806.0,163.4" fill="#2ca02c" />
<polyline points="92.0,491.3 180.5,447.2 269.0,404.8 357.5,362.7 446.0,331.4 534.5,295.1 623.0,263.7 711.5,240.7 800.0,254.1" fill="none" stroke="#9467bd" stroke-width="3" stroke-linejoin="round" stroke-linecap="round" />
<polygon points="92.0,485.3 86.0,491.3 92.0,497.3 98.0,491.3" fill="#9467bd" />
<polygon points="180.5,441.2 174.5,447.2 180.5,453.2 186.5,447.2" fill="#9467bd" />
<polygon points="269.0,398.8 263.0,404.8 269.0,410.8 275.0,404.8" fill="#9467bd" />
<polygon points="357.5,356.7 351.5,362.7 357.5,368.7 363.5,362.7" fill="#9467bd" />
<polygon points="446.0,325.4 440.0,331.4 446.0,337.4 452.0,331.4" fill="#9467bd" />
<polygon points="534.5,289.1 528.5,295.1 534.5,301.1 540.5,295.1" fill="#9467bd" />
<polygon points="623.0,257.7 617.0,263.7 623.0,269.7 629.0,263.7" fill="#9467bd" />
<polygon points="711.5,234.7 705.5,240.7 711.5,246.7 717.5,240.7" fill="#9467bd" />
<polygon points="800.0,248.1 794.0,254.1 800.0,260.1 806.0,254.1" fill="#9467bd" />
<text x="844.0" y="82.0" font-size="16" font-weight="700" fill="#111">Backend</text>
<line x1="844" y1="100.0" x2="878" y2="100.0" stroke="#d62728" stroke-width="3" stroke-linecap="round" />
<polygon points="861.0,94.0 855.0,100.0 861.0,106.0 867.0,100.0" fill="#d62728" />
<text x="890.0" y="105.0" font-size="14" fill="#111">src/batch (9403 tok/s @ bsz 256)</text>
<line x1="844" y1="154.0" x2="878" y2="154.0" stroke="#ff7f0e" stroke-width="3" stroke-linecap="round" />
<polygon points="861.0,148.0 855.0,154.0 861.0,160.0 867.0,154.0" fill="#ff7f0e" />
<text x="890.0" y="159.0" font-size="14" fill="#111">src/small GEMV (988 tok/s @ bsz 256)</text>
<line x1="844" y1="208.0" x2="878" y2="208.0" stroke="#1f77b4" stroke-width="3" stroke-linecap="round" />
<rect x="856.0" y="203.0" width="10" height="10" fill="#1f77b4" />
<text x="890.0" y="213.0" font-size="14" fill="#111">SGLang (7094 tok/s @ bsz 256)</text>
<line x1="844" y1="262.0" x2="878" y2="262.0" stroke="#2ca02c" stroke-width="3" stroke-linecap="round" />
<polygon points="861.0,256.0 855.0,267.0 867.0,267.0" fill="#2ca02c" />
<text x="890.0" y="267.0" font-size="14" fill="#111">vLLM (6114 tok/s @ bsz 256)</text>
<line x1="844" y1="316.0" x2="878" y2="316.0" stroke="#9467bd" stroke-width="3" stroke-linecap="round" />
<polygon points="861.0,310.0 855.0,316.0 861.0,322.0 867.0,316.0" fill="#9467bd" />
<text x="890.0" y="321.0" font-size="14" fill="#111">llama.cpp (2052 tok/s @ bsz 256)</text>
<text x="844.0" y="606.0" font-size="12" fill="#666">all plotted backends capped at bsz 256</text>
</svg>
